<?xml version="1.0" encoding="UTF-8"?>
<svg id="Ebene_1" data-name="Ebene 1" xmlns="http://www.w3.org/2000/svg" xmlns:xlink="http://www.w3.org/1999/xlink" viewBox="0 0 2630.93892559 2419.86962891">
  <defs>
    <linearGradient id="Unbenannter_Verlauf_36" data-name="Unbenannter Verlauf 36" x1="956.0876224" y1="27.70284412" x2="2756.38558781" y2="1923.38083418" gradientUnits="userSpaceOnUse">
      <stop offset="0" stop-color="#36a9e1"/>
      <stop offset="1" stop-color="#1d71b8"/>
    </linearGradient>
    <linearGradient id="Unbenannter_Verlauf_12" data-name="Unbenannter Verlauf 12" x1="-515.4113962" y1="-57.42026122" x2="2232.68563978" y2="2836.27131971" gradientUnits="userSpaceOnUse">
      <stop offset="0" stop-color="#7a18e5"/>
      <stop offset="1" stop-color="#662483"/>
    </linearGradient>
  </defs>
  <path d="m2308.13797612,1159.20847788c161.40016232-95.77552226,250.74749525-274.11528809,250.74749525-508.5992394C2558.88547137,244.39116068,2282.19903252,0,1829.70398987,0c-.00437377,0-560.2296963,1.23152811-685.6624898,4.24380462-61.5357918,1.47770876-120.68850485,6.02080408-177.46188811,13.49494879l193.28868007,469.91451099c25.96768551-2.21062732,52.59705963-3.33093675,79.86187976-3.33093675,94.82079118,0,117.13013216-4.00512185,234.98131122-4.050734l395.34114158,1.90633803c141.22584496,0,224.80855165,89.16863327,224.80855165,234.48270167s-83.58270669,234.48395131-224.80855165,234.48395131l-517.60420291,4.69930132,193.80540952,471.17040724,349.73836182-.29616658c158.5178492,0,250.74749525,95.77302296,250.74749525,260.9015101,0,165.13098643-104.4349581,266.79485008-247.75458828,271.91340831l-131.4386018,5.47658237,186.6355541,453.73969206c414.88001293-21.48769741,676.7568733-286.86919561,676.7568733-701.40555534,0-270.81121877-115.28440206-468.96540333-322.80094947-558.13528625Z" fill="url(#Unbenannter_Verlauf_36)"/>
  <path d="m1620.78721187,1964.79093901c-135.41623139-4.89112228-351.76591571-15.49501042-425.13962304-15.49501042-436.82758081,0-666.53162851-259.52939659-666.53162851-718.58759056,0-377.41993957,185.09536293-638.71133984,493.67906707-719.72726954L830.06119103,42.41617735C286.94417449,169.10174296,0,599.84916142,0,1230.70833803c0,743.08069142,392.08705818,1186.93566778,1108.85516124,1186.93566778,78.5428763,0,508.52925911,1.53206845,699.11807467,2.22562309l-187.18602404-455.0786899Z" fill="url(#Unbenannter_Verlauf_12)"/>
</svg>